<?xml version="1.0"?>
<svg xmlns="http://www.w3.org/2000/svg" version="1" viewBox="0 0 50 50" enable-background="new 0 0 50 50">
    <path style="text-indent:0;text-align:start;line-height:normal;text-transform:none;block-progression:tb;-inkscape-font-specification:Bitstream Vera Sans" d="M 25 0 C 23.93721 -0.00116011 22.869059 0.38288767 22.03125 1.15625 A 1.0001 1.0001 0 0 0 22 1.1875 L 1.1875 22.09375 C -0.4053371 23.686587 -0.39047465 26.293132 1.15625 27.96875 A 1.0001 1.0001 0 0 0 1.1875 28 L 22 48.8125 C 23.592837 50.405337 26.199382 50.390475 27.875 48.84375 A 1.0001 1.0001 0 0 0 27.90625 48.8125 L 48.71875 28 C 50.381369 26.337381 50.405337 23.686587 48.8125 22.09375 L 27.90625 1.1875 C 27.109831 0.39108145 26.06279 0.00116011 25 0 z M 24.96875 2 C 25.53096 1.9988399 26.096419 2.1901686 26.5 2.59375 L 47.40625 23.5 C 48.213413 24.307163 48.218631 25.656369 47.28125 26.59375 L 26.53125 47.375 C 26.52053 47.3849 26.51084 47.39659 26.5 47.40625 C 25.575961 48.229655 24.204051 48.204051 23.40625 47.40625 L 2.625 26.625 C 2.614906 26.61407 2.6036 26.60481 2.59375 26.59375 C 2.1823431 26.131737 1.9968501 25.558232 2 25 C 2.0007875 24.860442 2.005291 24.729336 2.03125 24.59375 C 2.1091271 24.186993 2.2946445 23.799106 2.59375 23.5 L 23.375 2.625 L 23.40625 2.59375 C 23.862733 2.187268 24.419841 2.0011327 24.96875 2 z M 23.8125 14 C 23.5125 14 23.40625 14.20625 23.40625 14.40625 L 23.40625 28.90625 C 23.40625 29.20625 23.6125 29.3125 23.8125 29.3125 L 26.09375 29.3125 C 26.39375 29.3125 26.5 29.10625 26.5 28.90625 L 26.5 14.40625 C 26.5 14.10625 26.29375 14 26.09375 14 L 23.8125 14 z M 23.8125 32.59375 C 23.5125 32.59375 23.40625 32.8 23.40625 33 L 23.40625 35.6875 C 23.40625 35.9875 23.6125 36.09375 23.8125 36.09375 L 26.1875 36.09375 C 26.4875 36.09375 26.59375 35.8875 26.59375 35.6875 L 26.59375 33.09375 C 26.59375 32.79375 26.3875 32.6875 26.1875 32.6875 L 26.1875 32.59375 L 23.8125 32.59375 z" overflow="visible" enable-background="accumulate" font-family="Bitstream Vera Sans"/>
</svg>
