<?xml version="1.0"?>
<svg xmlns="http://www.w3.org/2000/svg" viewBox="0 0 16 16">
    <path style="line-height:normal;text-indent:0;text-align:start;text-decoration-line:none;text-decoration-style:solid;text-decoration-color:#000;text-transform:none;block-progression:tb;isolation:auto;mix-blend-mode:normal" d="M 7.5 0.00390625 C 7.2392937 0.00386484 6.9795353 0.10151474 6.7832031 0.296875 A 0.50005 0.50005 0 0 0 6.78125 0.296875 L 0.296875 6.7832031 C -0.09526663 7.1753448 -0.09384552 7.8241325 0.296875 8.2167969 A 0.50005 0.50005 0 0 0 0.296875 8.21875 L 6.78125 14.703125 C 7.173978 15.095853 7.8240689 15.095853 8.2167969 14.703125 L 14.701172 8.21875 C 15.093314 7.8266084 15.093799 7.1758675 14.703125 6.7832031 A 0.50005 0.50005 0 0 0 14.701172 6.7832031 L 8.2167969 0.296875 C 8.0207261 0.10080418 7.7607063 0.00394766 7.5 0.00390625 z M 7.5097656 1.0039062 L 13.994141 7.4902344 C 14.002641 7.4992444 14.003141 7.5026818 13.994141 7.5117188 L 7.5097656 13.996094 C 7.5004956 14.005394 7.4975532 14.005394 7.4882812 13.996094 L 1.0058594 7.5117188 C 0.99457988 7.5003827 0.99404475 7.5000924 1.0039062 7.4902344 L 7.4882812 1.0058594 C 7.4996173 0.99457988 7.4999076 0.99404475 7.5097656 1.0039062 z M 4.5 7 A 0.5 0.5 0 0 0 4 7.5 A 0.5 0.5 0 0 0 4.5 8 A 0.5 0.5 0 0 0 5 7.5 A 0.5 0.5 0 0 0 4.5 7 z M 7.5 7 A 0.5 0.5 0 0 0 7 7.5 A 0.5 0.5 0 0 0 7.5 8 A 0.5 0.5 0 0 0 8 7.5 A 0.5 0.5 0 0 0 7.5 7 z M 10.5 7 A 0.5 0.5 0 0 0 10 7.5 A 0.5 0.5 0 0 0 10.5 8 A 0.5 0.5 0 0 0 11 7.5 A 0.5 0.5 0 0 0 10.5 7 z" font-weight="400" font-family="sans-serif" white-space="normal" overflow="visible"/>
</svg>
